<svg width="300" height="160" xmlns="http://www.w3.org/2000/svg"><rect x="0" y="0" width="207.36326256870643" height="8" fill="#c6538c"/><rect x="207.36326256870643" y="0" width="42.56736857925467" height="8" fill="#f1e05a"/><rect x="249.9306311479611" y="0" width="14.329511168949859" height="8" fill="#e34c26"/><rect x="264.26014231691096" y="0" width="12.913291975539769" height="8" fill="#00ADD8"/><rect x="277.17343429245074" y="0" width="11.968537728923726" height="8" fill="#3572A5"/><rect x="289.14197202137444" y="0" width="4.2152979820049294" height="8" fill="#663399"/><rect x="293.35727000337937" y="0" width="3.428741205098111" height="8" fill="None"/><rect x="296.7860112084775" y="0" width="2.8986363395485855" height="8" fill="#3178c6"/><circle cx="6" cy="22" r="5" fill="#c6538c"/><text x="18" y="26" font-family="-apple-system,BlinkMacSystemFont,Segoe UI,Helvetica,Arial,sans-serif" font-size="12" fill="#586069">SCSS</text><text x="294" y="26" font-family="-apple-system,BlinkMacSystemFont,Segoe UI,Helvetica,Arial,sans-serif" font-size="12" fill="#586069" text-anchor="end">69.1%</text><circle cx="6" cy="40" r="5" fill="#f1e05a"/><text x="18" y="44" font-family="-apple-system,BlinkMacSystemFont,Segoe UI,Helvetica,Arial,sans-serif" font-size="12" fill="#586069">JavaScript</text><text x="294" y="44" font-family="-apple-system,BlinkMacSystemFont,Segoe UI,Helvetica,Arial,sans-serif" font-size="12" fill="#586069" text-anchor="end">14.2%</text><circle cx="6" cy="58" r="5" fill="#e34c26"/><text x="18" y="62" font-family="-apple-system,BlinkMacSystemFont,Segoe UI,Helvetica,Arial,sans-serif" font-size="12" fill="#586069">HTML</text><text x="294" y="62" font-family="-apple-system,BlinkMacSystemFont,Segoe UI,Helvetica,Arial,sans-serif" font-size="12" fill="#586069" text-anchor="end">4.8%</text><circle cx="6" cy="76" r="5" fill="#00ADD8"/><text x="18" y="80" font-family="-apple-system,BlinkMacSystemFont,Segoe UI,Helvetica,Arial,sans-serif" font-size="12" fill="#586069">Go</text><text x="294" y="80" font-family="-apple-system,BlinkMacSystemFont,Segoe UI,Helvetica,Arial,sans-serif" font-size="12" fill="#586069" text-anchor="end">4.3%</text><circle cx="6" cy="94" r="5" fill="#3572A5"/><text x="18" y="98" font-family="-apple-system,BlinkMacSystemFont,Segoe UI,Helvetica,Arial,sans-serif" font-size="12" fill="#586069">Python</text><text x="294" y="98" font-family="-apple-system,BlinkMacSystemFont,Segoe UI,Helvetica,Arial,sans-serif" font-size="12" fill="#586069" text-anchor="end">4.0%</text><circle cx="6" cy="112" r="5" fill="#663399"/><text x="18" y="116" font-family="-apple-system,BlinkMacSystemFont,Segoe UI,Helvetica,Arial,sans-serif" font-size="12" fill="#586069">CSS</text><text x="294" y="116" font-family="-apple-system,BlinkMacSystemFont,Segoe UI,Helvetica,Arial,sans-serif" font-size="12" fill="#586069" text-anchor="end">1.4%</text><circle cx="6" cy="130" r="5" fill="None"/><text x="18" y="134" font-family="-apple-system,BlinkMacSystemFont,Segoe UI,Helvetica,Arial,sans-serif" font-size="12" fill="#586069">NSIS</text><text x="294" y="134" font-family="-apple-system,BlinkMacSystemFont,Segoe UI,Helvetica,Arial,sans-serif" font-size="12" fill="#586069" text-anchor="end">1.1%</text><circle cx="6" cy="148" r="5" fill="#3178c6"/><text x="18" y="152" font-family="-apple-system,BlinkMacSystemFont,Segoe UI,Helvetica,Arial,sans-serif" font-size="12" fill="#586069">TypeScript</text><text x="294" y="152" font-family="-apple-system,BlinkMacSystemFont,Segoe UI,Helvetica,Arial,sans-serif" font-size="12" fill="#586069" text-anchor="end">1.0%</text></svg>