<svg width="300" height="124" xmlns="http://www.w3.org/2000/svg"><rect x="0" y="0" width="117.97109143532393" height="8" fill="#3572A5"/><rect x="117.97109143532393" y="0" width="92.51340103783117" height="8" fill="#f1e05a"/><rect x="210.48449247315511" y="0" width="42.94925587847442" height="8" fill="#00ADD8"/><rect x="253.43374835162953" y="0" width="29.239095066020443" height="8" fill="#663399"/><rect x="282.67284341765" y="0" width="11.105307324758952" height="8" fill="#e34c26"/><rect x="293.7781507424089" y="0" width="6.221849257591067" height="8" fill="#178600"/><circle cx="6" cy="22" r="5" fill="#3572A5"/><text x="18" y="26" font-family="-apple-system,BlinkMacSystemFont,Segoe UI,Helvetica,Arial,sans-serif" font-size="12" fill="#586069">Python</text><text x="294" y="26" font-family="-apple-system,BlinkMacSystemFont,Segoe UI,Helvetica,Arial,sans-serif" font-size="12" fill="#586069" text-anchor="end">39.3%</text><circle cx="6" cy="40" r="5" fill="#f1e05a"/><text x="18" y="44" font-family="-apple-system,BlinkMacSystemFont,Segoe UI,Helvetica,Arial,sans-serif" font-size="12" fill="#586069">JavaScript</text><text x="294" y="44" font-family="-apple-system,BlinkMacSystemFont,Segoe UI,Helvetica,Arial,sans-serif" font-size="12" fill="#586069" text-anchor="end">30.8%</text><circle cx="6" cy="58" r="5" fill="#00ADD8"/><text x="18" y="62" font-family="-apple-system,BlinkMacSystemFont,Segoe UI,Helvetica,Arial,sans-serif" font-size="12" fill="#586069">Go</text><text x="294" y="62" font-family="-apple-system,BlinkMacSystemFont,Segoe UI,Helvetica,Arial,sans-serif" font-size="12" fill="#586069" text-anchor="end">14.3%</text><circle cx="6" cy="76" r="5" fill="#663399"/><text x="18" y="80" font-family="-apple-system,BlinkMacSystemFont,Segoe UI,Helvetica,Arial,sans-serif" font-size="12" fill="#586069">CSS</text><text x="294" y="80" font-family="-apple-system,BlinkMacSystemFont,Segoe UI,Helvetica,Arial,sans-serif" font-size="12" fill="#586069" text-anchor="end">9.7%</text><circle cx="6" cy="94" r="5" fill="#e34c26"/><text x="18" y="98" font-family="-apple-system,BlinkMacSystemFont,Segoe UI,Helvetica,Arial,sans-serif" font-size="12" fill="#586069">HTML</text><text x="294" y="98" font-family="-apple-system,BlinkMacSystemFont,Segoe UI,Helvetica,Arial,sans-serif" font-size="12" fill="#586069" text-anchor="end">3.7%</text><circle cx="6" cy="112" r="5" fill="#178600"/><text x="18" y="116" font-family="-apple-system,BlinkMacSystemFont,Segoe UI,Helvetica,Arial,sans-serif" font-size="12" fill="#586069">C#</text><text x="294" y="116" font-family="-apple-system,BlinkMacSystemFont,Segoe UI,Helvetica,Arial,sans-serif" font-size="12" fill="#586069" text-anchor="end">2.1%</text></svg>