<svg width="300" height="160" xmlns="http://www.w3.org/2000/svg"><rect x="0" y="0" width="100.05774553193947" height="8" fill="#f1e05a"/><rect x="100.05774553193947" y="0" width="61.31090606864294" height="8" fill="#00ADD8"/><rect x="161.3686516005824" y="0" width="56.82531564120226" height="8" fill="#3572A5"/><rect x="218.19396724178466" y="0" width="30.316404268219745" height="8" fill="#e34c26"/><rect x="248.5103715100044" y="0" width="19.950668817000285" height="8" fill="#663399"/><rect x="268.4610403270047" y="0" width="16.27929038990608" height="8" fill="None"/><rect x="284.74033071691076" y="0" width="13.76241013351592" height="8" fill="#3178c6"/><rect x="298.5027408504267" y="0" width="1.4972591495733019" height="8" fill="#89e051"/><circle cx="6" cy="22" r="5" fill="#f1e05a"/><text x="18" y="26" font-family="-apple-system,BlinkMacSystemFont,Segoe UI,Helvetica,Arial,sans-serif" font-size="12" fill="#586069">JavaScript</text><text x="294" y="26" font-family="-apple-system,BlinkMacSystemFont,Segoe UI,Helvetica,Arial,sans-serif" font-size="12" fill="#586069" text-anchor="end">33.4%</text><circle cx="6" cy="40" r="5" fill="#00ADD8"/><text x="18" y="44" font-family="-apple-system,BlinkMacSystemFont,Segoe UI,Helvetica,Arial,sans-serif" font-size="12" fill="#586069">Go</text><text x="294" y="44" font-family="-apple-system,BlinkMacSystemFont,Segoe UI,Helvetica,Arial,sans-serif" font-size="12" fill="#586069" text-anchor="end">20.4%</text><circle cx="6" cy="58" r="5" fill="#3572A5"/><text x="18" y="62" font-family="-apple-system,BlinkMacSystemFont,Segoe UI,Helvetica,Arial,sans-serif" font-size="12" fill="#586069">Python</text><text x="294" y="62" font-family="-apple-system,BlinkMacSystemFont,Segoe UI,Helvetica,Arial,sans-serif" font-size="12" fill="#586069" text-anchor="end">18.9%</text><circle cx="6" cy="76" r="5" fill="#e34c26"/><text x="18" y="80" font-family="-apple-system,BlinkMacSystemFont,Segoe UI,Helvetica,Arial,sans-serif" font-size="12" fill="#586069">HTML</text><text x="294" y="80" font-family="-apple-system,BlinkMacSystemFont,Segoe UI,Helvetica,Arial,sans-serif" font-size="12" fill="#586069" text-anchor="end">10.1%</text><circle cx="6" cy="94" r="5" fill="#663399"/><text x="18" y="98" font-family="-apple-system,BlinkMacSystemFont,Segoe UI,Helvetica,Arial,sans-serif" font-size="12" fill="#586069">CSS</text><text x="294" y="98" font-family="-apple-system,BlinkMacSystemFont,Segoe UI,Helvetica,Arial,sans-serif" font-size="12" fill="#586069" text-anchor="end">6.7%</text><circle cx="6" cy="112" r="5" fill="None"/><text x="18" y="116" font-family="-apple-system,BlinkMacSystemFont,Segoe UI,Helvetica,Arial,sans-serif" font-size="12" fill="#586069">NSIS</text><text x="294" y="116" font-family="-apple-system,BlinkMacSystemFont,Segoe UI,Helvetica,Arial,sans-serif" font-size="12" fill="#586069" text-anchor="end">5.4%</text><circle cx="6" cy="130" r="5" fill="#3178c6"/><text x="18" y="134" font-family="-apple-system,BlinkMacSystemFont,Segoe UI,Helvetica,Arial,sans-serif" font-size="12" fill="#586069">TypeScript</text><text x="294" y="134" font-family="-apple-system,BlinkMacSystemFont,Segoe UI,Helvetica,Arial,sans-serif" font-size="12" fill="#586069" text-anchor="end">4.6%</text><circle cx="6" cy="148" r="5" fill="#89e051"/><text x="18" y="152" font-family="-apple-system,BlinkMacSystemFont,Segoe UI,Helvetica,Arial,sans-serif" font-size="12" fill="#586069">Shell</text><text x="294" y="152" font-family="-apple-system,BlinkMacSystemFont,Segoe UI,Helvetica,Arial,sans-serif" font-size="12" fill="#586069" text-anchor="end">0.5%</text></svg>