<svg width="300" height="160" xmlns="http://www.w3.org/2000/svg"><rect x="0" y="0" width="231.15236077270808" height="8" fill="#c6538c"/><rect x="231.15236077270808" y="0" width="31.63385071874866" height="8" fill="#f1e05a"/><rect x="262.78621149145675" y="0" width="10.653788198654308" height="8" fill="#e34c26"/><rect x="273.43999969011105" y="0" width="9.596485859380143" height="8" fill="#00ADD8"/><rect x="283.0364855494912" y="0" width="8.894393721650005" height="8" fill="#3572A5"/><rect x="291.9308792711412" y="0" width="3.1325898581096" height="8" fill="#663399"/><rect x="295.0634691292508" y="0" width="2.5480618383386853" height="8" fill="None"/><rect x="297.6115309675895" y="0" width="2.1541155188509316" height="8" fill="#3178c6"/><circle cx="6" cy="22" r="5" fill="#c6538c"/><text x="18" y="26" font-family="-apple-system,BlinkMacSystemFont,Segoe UI,Helvetica,Arial,sans-serif" font-size="12" fill="#586069">SCSS</text><text x="294" y="26" font-family="-apple-system,BlinkMacSystemFont,Segoe UI,Helvetica,Arial,sans-serif" font-size="12" fill="#586069" text-anchor="end">77.1%</text><circle cx="6" cy="40" r="5" fill="#f1e05a"/><text x="18" y="44" font-family="-apple-system,BlinkMacSystemFont,Segoe UI,Helvetica,Arial,sans-serif" font-size="12" fill="#586069">JavaScript</text><text x="294" y="44" font-family="-apple-system,BlinkMacSystemFont,Segoe UI,Helvetica,Arial,sans-serif" font-size="12" fill="#586069" text-anchor="end">10.5%</text><circle cx="6" cy="58" r="5" fill="#e34c26"/><text x="18" y="62" font-family="-apple-system,BlinkMacSystemFont,Segoe UI,Helvetica,Arial,sans-serif" font-size="12" fill="#586069">HTML</text><text x="294" y="62" font-family="-apple-system,BlinkMacSystemFont,Segoe UI,Helvetica,Arial,sans-serif" font-size="12" fill="#586069" text-anchor="end">3.6%</text><circle cx="6" cy="76" r="5" fill="#00ADD8"/><text x="18" y="80" font-family="-apple-system,BlinkMacSystemFont,Segoe UI,Helvetica,Arial,sans-serif" font-size="12" fill="#586069">Go</text><text x="294" y="80" font-family="-apple-system,BlinkMacSystemFont,Segoe UI,Helvetica,Arial,sans-serif" font-size="12" fill="#586069" text-anchor="end">3.2%</text><circle cx="6" cy="94" r="5" fill="#3572A5"/><text x="18" y="98" font-family="-apple-system,BlinkMacSystemFont,Segoe UI,Helvetica,Arial,sans-serif" font-size="12" fill="#586069">Python</text><text x="294" y="98" font-family="-apple-system,BlinkMacSystemFont,Segoe UI,Helvetica,Arial,sans-serif" font-size="12" fill="#586069" text-anchor="end">3.0%</text><circle cx="6" cy="112" r="5" fill="#663399"/><text x="18" y="116" font-family="-apple-system,BlinkMacSystemFont,Segoe UI,Helvetica,Arial,sans-serif" font-size="12" fill="#586069">CSS</text><text x="294" y="116" font-family="-apple-system,BlinkMacSystemFont,Segoe UI,Helvetica,Arial,sans-serif" font-size="12" fill="#586069" text-anchor="end">1.0%</text><circle cx="6" cy="130" r="5" fill="None"/><text x="18" y="134" font-family="-apple-system,BlinkMacSystemFont,Segoe UI,Helvetica,Arial,sans-serif" font-size="12" fill="#586069">NSIS</text><text x="294" y="134" font-family="-apple-system,BlinkMacSystemFont,Segoe UI,Helvetica,Arial,sans-serif" font-size="12" fill="#586069" text-anchor="end">0.8%</text><circle cx="6" cy="148" r="5" fill="#3178c6"/><text x="18" y="152" font-family="-apple-system,BlinkMacSystemFont,Segoe UI,Helvetica,Arial,sans-serif" font-size="12" fill="#586069">TypeScript</text><text x="294" y="152" font-family="-apple-system,BlinkMacSystemFont,Segoe UI,Helvetica,Arial,sans-serif" font-size="12" fill="#586069" text-anchor="end">0.7%</text></svg>